<?xml version="1.0" encoding="UTF-8" standalone="no"?>
<!-- Created with Inkscape (http://www.inkscape.org/) -->

<svg
   width="512"
   height="512"
   viewBox="0 0 135.46667 135.46667"
   version="1.1"
   id="svg1"
   inkscape:version="1.4.2 (ebf0e94, 2025-05-08)"
   sodipodi:docname="logo-signpost.svg"
   inkscape:export-filename="logo-signpost-black.png"
   inkscape:export-xdpi="96"
   inkscape:export-ydpi="96"
   xmlns:inkscape="http://www.inkscape.org/namespaces/inkscape"
   xmlns:sodipodi="http://sodipodi.sourceforge.net/DTD/sodipodi-0.dtd"
   xmlns="http://www.w3.org/2000/svg"
   xmlns:svg="http://www.w3.org/2000/svg">
  <sodipodi:namedview
     id="namedview1"
     pagecolor="#000000"
     bordercolor="#000000"
     borderopacity="0.25"
     inkscape:showpageshadow="2"
     inkscape:pageopacity="0.0"
     inkscape:pagecheckerboard="true"
     inkscape:deskcolor="#d1d1d1"
     inkscape:document-units="mm"
     inkscape:zoom="0.97386896"
     inkscape:cx="139.64918"
     inkscape:cy="274.67761"
     inkscape:window-width="1920"
     inkscape:window-height="991"
     inkscape:window-x="-9"
     inkscape:window-y="-9"
     inkscape:window-maximized="1"
     inkscape:current-layer="layer1"
     showguides="true" />
  <defs
     id="defs1">
    <linearGradient
       id="linearGradient15"
       inkscape:swatch="gradient">
      <stop
         style="stop-color:#000000;stop-opacity:1;"
         offset="0"
         id="stop15" />
      <stop
         style="stop-color:#000000;stop-opacity:0;"
         offset="1"
         id="stop16" />
    </linearGradient>
  </defs>
  <g
     inkscape:label="Layer 1"
     inkscape:groupmode="layer"
     id="layer1">
    <rect
       style="mix-blend-mode:normal;fill:#5f5f5f;fill-opacity:1;stroke-width:0.234151;fill-rule:nonzero;stroke:none;stroke-opacity:1"
       id="rect1"
       width="18.124138"
       height="126.42015"
       x="4.7367954"
       y="5.9427147"
       rx="9.0620689"
       ry="9.7750731" />
    <path
       d="M 106.73715,79.738802 132.36089,49.467613 106.48601,15.757694 H 22.685437 v 63.981108 z"
       style="stroke-width:5;fill:#ffffff;fill-opacity:1;stroke:#000000;stroke-opacity:1;stroke-dasharray:none;stroke-linejoin:round;stroke-miterlimit:4;stroke-linecap:round"
       id="path12"
       sodipodi:nodetypes="cccccc" />
    <g
       id="g20"
       transform="matrix(21.580261,0,0,21.580261,-1106.2399,-791.88768)">
      <path
         d="m 54.068662,38.1 h -0.622829 a 0.79375,0.79375 0 0 0 0,1.5875 h 0.79375 a 0.79374999,0.79374999 0 0 0 0.748771,-1.058333 H 54.76875 q -0.0344,0 -0.06615,0.0082 a 0.52916666,0.52916666 0 0 1 -0.463021,0.785548 h -0.79375 a 0.52916666,0.52916666 0 1 1 0,-1.058333 h 0.406136 C 53.909648,38.2651 53.982937,38.175671 54.068927,38.1 Z"
         id="path1"
         style="stroke-width:0.264583" />
      <path
         d="m 54.76875,38.1 a 0.79374999,0.79374999 0 0 0 -0.748771,1.058334 h 0.290513 a 0.52916666,0.52916666 0 0 1 0.458258,-0.79375 h 0.79375 a 0.52916666,0.52916666 0 1 1 0,1.058333 H 55.156365 A 1.0583333,1.0583333 0 0 1 54.939406,39.6875 H 55.5625 a 0.79375,0.79375 0 1 0 0,-1.5875 z"
         id="path2"
         style="stroke-width:0.264583" />
    </g>
  </g>
</svg>
